HIERARCHY
ROOT joint_0
{
	OFFSET 0.000000 0.000000 0.000000
	CHANNELS 6 Xposition Yposition Zposition Zrotation Yrotation Xrotation 
	JOINT joint_1
	{
		OFFSET 11.612000 -0.419000 106.198000
		CHANNELS 3 Zrotation Yrotation Xrotation
		JOINT joint_2
		{
			OFFSET -1.708000 -1.022000 97.564090
			CHANNELS 3 Zrotation Yrotation Xrotation
			JOINT joint_3
			{
				OFFSET -4.121000 -1.538000 97.375000
				CHANNELS 3 Zrotation Yrotation Xrotation
				JOINT joint_4
				{
					OFFSET 5.442000 -2.123000 132.795900
					CHANNELS 3 Zrotation Yrotation Xrotation
					JOINT joint_5
					{
						OFFSET 21.935000 0.195000 82.975100
						CHANNELS 3 Zrotation Yrotation Xrotation
						End Site
						{
							OFFSET 0.000000 0.000000 0.000000
						}
					}
				}
				JOINT joint_6
				{
					OFFSET 4.262000 -30.048000 73.899900
					CHANNELS 3 Zrotation Yrotation Xrotation
					JOINT joint_7
					{
						OFFSET 9.731000 -136.810010 -21.963010
						CHANNELS 3 Zrotation Yrotation Xrotation
						JOINT joint_8
						{
							OFFSET 33.360000 -35.709000 -267.597900
							CHANNELS 3 Zrotation Yrotation Xrotation
							JOINT joint_9
							{
								OFFSET 36.156000 -29.759000 -240.558040
								CHANNELS 3 Zrotation Yrotation Xrotation
								End Site
								{
									OFFSET 0.000000 0.000000 0.000000
								}
							}
						}
					}
				}
				JOINT joint_10
				{
					OFFSET 2.027000 27.734000 74.914920
					CHANNELS 3 Zrotation Yrotation Xrotation
					JOINT joint_11
					{
						OFFSET -5.183000 136.784000 -23.604980
						CHANNELS 3 Zrotation Yrotation Xrotation
						JOINT joint_12
						{
							OFFSET 29.806000 37.229000 -267.809940
							CHANNELS 3 Zrotation Yrotation Xrotation
							JOINT joint_13
							{
								OFFSET 36.890000 46.524990 -237.772030
								CHANNELS 3 Zrotation Yrotation Xrotation
								End Site
								{
									OFFSET 0.000000 0.000000 0.000000
								}
							}
						}
					}
				}
			}
		}
	}
	JOINT joint_14
	{
		OFFSET -7.290000 -102.873990 -124.314940
		CHANNELS 3 Zrotation Yrotation Xrotation
		JOINT joint_15
		{
			OFFSET -15.466000 -19.909010 -438.533020
			CHANNELS 3 Zrotation Yrotation Xrotation
			JOINT joint_16
			{
				OFFSET -26.899000 -18.922000 -464.797000
				CHANNELS 3 Zrotation Yrotation Xrotation
				JOINT joint_17
				{
					OFFSET 179.329000 -12.011000 -84.174000
					CHANNELS 3 Zrotation Yrotation Xrotation
					End Site
					{
						OFFSET 0.000000 0.000000 0.000000
					}
				}
			}
		}
	}
	JOINT joint_18
	{
		OFFSET -6.225000 101.546000 -125.479980
		CHANNELS 3 Zrotation Yrotation Xrotation
		JOINT joint_19
		{
			OFFSET -13.973000 7.996000 -438.963010
			CHANNELS 3 Zrotation Yrotation Xrotation
			JOINT joint_20
			{
				OFFSET -44.294000 5.716000 -463.813970
				CHANNELS 3 Zrotation Yrotation Xrotation
				JOINT joint_21
				{
					OFFSET 178.505000 -4.689000 -85.139000
					CHANNELS 3 Zrotation Yrotation Xrotation
					End Site
					{
						OFFSET 0.000000 0.000000 0.000000
					}
				}
			}
		}
	}
}
MOTION
Frames: 6
Frame Time: 0.016667
139.067990 -42.904000 1152.297000 1.892080 1.033250 0.274310 -0.135920 9.067350 -0.627160 -0.804490 -1.614520 0.117780 -0.823550 1.588600 -0.121710 -0.454500 7.322720 1.577390 0.000000 0.000000 0.000000 -2.137880 -2.196740 0.280610 0.206990 -2.648250 -0.755520 2.954570 -15.984800 6.985890 0.000000 0.000000 0.000000 -3.203020 -1.467020 0.757050 -0.304460 -0.948570 1.222910 -1.091090 -3.503150 -2.816240 0.000000 0.000000 0.000000 0.779110 -9.423390 -3.714220 -1.069070 36.130860 4.884100 1.432400 6.554790 1.028300 0.000000 0.000000 0.000000 0.164650 -1.648020 4.008570 0.741310 20.995670 -0.914780 1.061410 7.502040 0.644190 0.000000 0.000000 0.000000 
147.151990 -43.041000 1151.191040 1.551250 0.841840 0.321540 0.002550 9.954540 -0.881280 -0.993780 -1.730230 0.215640 -1.045990 1.663680 -0.117890 -0.473810 6.946070 1.681730 0.000000 0.000000 0.000000 -2.281010 -2.825280 0.311350 0.415070 -3.301590 -0.254900 2.901680 -15.846820 6.343520 0.000000 0.000000 0.000000 -3.472760 -1.687320 1.080120 -0.352230 -1.149560 1.005850 -1.049110 -3.316720 -2.802450 0.000000 0.000000 0.000000 0.405680 -12.259110 -4.328920 -1.458590 40.873540 5.455790 0.896980 7.489610 0.878620 0.000000 0.000000 0.000000 0.111500 -1.531680 3.942400 0.709960 21.980860 -0.922340 1.103210 7.871670 0.663480 0.000000 0.000000 0.000000 
155.877000 -43.524000 1149.647950 1.369740 0.905270 0.399970 0.047700 10.487880 -1.098250 -1.224040 -1.849500 0.275220 -1.306710 1.747180 -0.111980 -0.491910 6.717330 1.777150 0.000000 0.000000 0.000000 -2.308740 -3.360200 0.634050 0.564390 -3.880600 -0.104710 2.843950 -15.694730 5.729870 0.000000 0.000000 0.000000 -3.671240 -1.916710 1.169370 -0.365670 -1.346360 1.051090 -0.975810 -2.985290 -2.745060 0.000000 0.000000 0.000000 -0.087230 -14.787490 -4.858650 -1.886000 44.335350 6.118410 0.012290 6.537320 0.474860 0.000000 0.000000 0.000000 0.146220 -1.475070 3.750040 0.752330 22.626510 -0.724670 1.258860 8.037450 0.726590 0.000000 0.000000 0.000000 
165.082990 -44.324000 1147.775020 1.219050 1.134930 0.475360 0.035620 10.789390 -1.267520 -1.454500 -1.950610 0.305620 -1.563710 1.833820 -0.107560 -0.507570 6.564180 1.862010 0.000000 0.000000 0.000000 -2.273110 -3.842100 1.123250 0.686620 -4.416620 -0.123780 2.767200 -15.439980 5.094350 0.000000 0.000000 0.000000 -3.832930 -2.155700 1.122980 -0.356400 -1.542240 1.258880 -0.872470 -2.522200 -2.639450 0.000000 0.000000 0.000000 -0.580450 -17.213060 -5.294670 -2.279600 46.919810 6.872680 -0.997300 4.390270 -0.057490 0.000000 0.000000 0.000000 0.257600 -1.412920 3.505920 0.858950 23.005360 -0.399750 1.497320 8.043160 0.820510 0.000000 0.000000 0.000000 
174.849000 -45.541000 1146.088990 0.921770 1.412290 0.512630 0.004960 11.030750 -1.369370 -1.586880 -2.035110 0.324870 -1.708710 1.911420 -0.105230 -0.517720 6.438390 1.922080 0.000000 0.000000 0.000000 -2.253510 -4.243530 1.574040 0.794840 -4.871130 -0.165890 2.689510 -15.082350 4.583460 0.000000 0.000000 0.000000 -3.924970 -2.421090 1.007850 -0.340420 -1.767760 1.541350 -0.743180 -1.994100 -2.432010 0.000000 0.000000 0.000000 -0.893400 -19.405530 -5.511410 -2.542530 48.000200 7.427650 -1.877660 2.231960 -0.550300 0.000000 0.000000 0.000000 0.461710 -1.185000 3.325120 1.026270 23.072490 -0.088120 1.744110 8.103520 0.919260 0.000000 0.000000 0.000000 
185.131000 -47.174000 1144.808960 0.364420 1.670610 0.485340 -0.029120 11.315770 -1.402350 -1.562390 -2.118900 0.356900 -1.675770 1.971190 -0.109880 -0.521530 6.321230 1.954430 0.000000 0.000000 0.000000 -2.275420 -4.557240 1.949880 0.883860 -5.241000 -0.283590 2.627280 -14.591850 4.348740 0.000000 0.000000 0.000000 -3.897200 -2.767260 0.782230 -0.319660 -2.081490 1.940840 -0.572930 -1.362400 -2.076760 0.000000 0.000000 0.000000 -0.951920 -21.186900 -5.469880 -2.692640 46.939070 7.756840 -2.552870 0.786910 -0.927710 0.000000 0.000000 0.000000 0.812420 -0.628120 3.233490 1.288670 22.682630 0.191830 1.999270 8.265990 1.024660 0.000000 0.000000 0.000000 
